<?plantuml 1.2026.1?><svg xmlns="http://www.w3.org/2000/svg" xmlns:xlink="http://www.w3.org/1999/xlink" contentStyleType="text/css" data-diagram-type="SEQUENCE" height="809px" preserveAspectRatio="none" style="width:808px;height:809px;background:#FFFFFF;" version="1.1" viewBox="0 0 808 809" width="808px" zoomAndPan="magnify"><title>Rejet et correction &#8212; le linter parle, l'agent corrige</title><defs/><g><text fill="#0E2356" font-family="'Outfit'" font-size="14" font-weight="bold" lengthAdjust="spacing" textLength="323.9181" x="242.0341" y="29">Rejet et correction &#8212; le linter parle, l'agent corrige</text><g class="participant-lifeline" data-entity-uid="part1" data-qualified-name="Agent" id="part1-lifeline"><g><title>Agent</title><rect fill="#000000" fill-opacity="0.00000" height="666.12" width="8" x="46.3983" y="91.4"/><line style="stroke:#CFD3DD;stroke-width:0.5;stroke-dasharray:5,5;" x1="50" x2="50" y1="91.4" y2="757.52"/></g></g><g class="participant-lifeline" data-entity-uid="part2" data-qualified-name="MCP" id="part2-lifeline"><g><title>ppg-mcp-server</title><rect fill="#000000" fill-opacity="0.00000" height="666.12" width="8" x="274.0513" y="91.4"/><line style="stroke:#CFD3DD;stroke-width:0.5;stroke-dasharray:5,5;" x1="277.4075" x2="277.4075" y1="91.4" y2="757.52"/></g></g><g class="participant-lifeline" data-entity-uid="part3" data-qualified-name="PPG" id="part3-lifeline"><g><title>Serveur de validation</title><rect fill="#000000" fill-opacity="0.00000" height="666.12" width="8" x="625.3913" y="91.4"/><line style="stroke:#CFD3DD;stroke-width:0.5;stroke-dasharray:5,5;" x1="628.6036" x2="628.6036" y1="91.4" y2="757.52"/></g></g><g class="participant participant-head" data-entity-uid="part1" data-qualified-name="Agent" id="part1-head"><rect fill="#E8F0FE" height="30.38" rx="4" ry="4" style="stroke:#6D9EEB;stroke-width:0.5;" width="50.7965" x="25" y="60.02"/><text fill="#0E2356" font-family="'Outfit'" font-size="13" font-weight="bold" lengthAdjust="spacing" textLength="36.7965" x="32" y="80.02">Agent</text></g><g class="participant participant-tail" data-entity-uid="part1" data-qualified-name="Agent" id="part1-tail"><rect fill="#E8F0FE" height="30.38" rx="4" ry="4" style="stroke:#6D9EEB;stroke-width:0.5;" width="50.7965" x="25" y="756.52"/><text fill="#0E2356" font-family="'Outfit'" font-size="13" font-weight="bold" lengthAdjust="spacing" textLength="36.7965" x="32" y="776.52">Agent</text></g><g class="participant participant-head" data-entity-uid="part2" data-qualified-name="MCP" id="part2-head"><rect fill="#E8F0FE" height="30.38" rx="4" ry="4" style="stroke:#6D9EEB;stroke-width:0.5;" width="113.2875" x="221.4075" y="60.02"/><text fill="#0E2356" font-family="'Outfit'" font-size="13" font-weight="bold" lengthAdjust="spacing" textLength="99.2875" x="228.4075" y="80.02">ppg-mcp-server</text></g><g class="participant participant-tail" data-entity-uid="part2" data-qualified-name="MCP" id="part2-tail"><rect fill="#E8F0FE" height="30.38" rx="4" ry="4" style="stroke:#6D9EEB;stroke-width:0.5;" width="113.2875" x="221.4075" y="756.52"/><text fill="#0E2356" font-family="'Outfit'" font-size="13" font-weight="bold" lengthAdjust="spacing" textLength="99.2875" x="228.4075" y="776.52">ppg-mcp-server</text></g><g class="participant participant-head" data-entity-uid="part3" data-qualified-name="PPG" id="part3-head"><rect fill="#E8F0FE" height="46.76" rx="4" ry="4" style="stroke:#6D9EEB;stroke-width:0.5;" width="141.5755" x="558.6036" y="43.64"/><text fill="#0E2356" font-family="'Outfit'" font-size="13" font-weight="bold" lengthAdjust="spacing" textLength="127.5755" x="565.6036" y="63.64">Serveur de validation</text><text fill="#0E2356" font-family="'Outfit'" font-size="13" font-weight="bold" lengthAdjust="spacing" textLength="73.463" x="592.6598" y="80.02">(linter Rego)</text></g><g class="participant participant-tail" data-entity-uid="part3" data-qualified-name="PPG" id="part3-tail"><rect fill="#E8F0FE" height="46.76" rx="4" ry="4" style="stroke:#6D9EEB;stroke-width:0.5;" width="141.5755" x="558.6036" y="756.52"/><text fill="#0E2356" font-family="'Outfit'" font-size="13" font-weight="bold" lengthAdjust="spacing" textLength="127.5755" x="565.6036" y="776.52">Serveur de validation</text><text fill="#0E2356" font-family="'Outfit'" font-size="13" font-weight="bold" lengthAdjust="spacing" textLength="73.463" x="592.6598" y="792.9">(linter Rego)</text></g><g class="message" data-entity-1="part1" data-entity-2="part2" id="msg1"><polygon fill="#0E2356" points="266.0513,118.52,276.0513,122.52,266.0513,126.52,270.0513,122.52" style="stroke:#0E2356;stroke-width:1;"/><line style="stroke:#0E2356;stroke-width:1;" x1="50.3983" x2="272.0513" y1="122.52" y2="122.52"/><text fill="#0E2356" font-family="'Outfit'" font-size="12" font-weight="bold" lengthAdjust="spacing" textLength="4.536" x="57.3983" y="117.4">1</text><text fill="#0E2356" font-family="'Outfit'" font-size="12" lengthAdjust="spacing" textLength="195.117" x="65.9343" y="117.4">lock_in_plan(plan sans &#233;tape de test)</text></g><g class="message" data-entity-1="part2" data-entity-2="part3" id="msg2"><polygon fill="#0E2356" points="617.3913,147.64,627.3913,151.64,617.3913,155.64,621.3913,151.64" style="stroke:#0E2356;stroke-width:1;"/><line style="stroke:#0E2356;stroke-width:1;" x1="278.0513" x2="623.3913" y1="151.64" y2="151.64"/><text fill="#0E2356" font-family="'Outfit'" font-size="12" font-weight="bold" lengthAdjust="spacing" textLength="6.768" x="285.0513" y="146.52">2</text><text fill="#0E2356" font-family="'Outfit'" font-size="12" lengthAdjust="spacing" textLength="103.986" x="295.8193" y="146.52">POST /lock_in_plan</text></g><g class="message" data-entity-1="part3" data-entity-2="part3" id="msg3"><line style="stroke:#0E2356;stroke-width:1;" x1="629.3913" x2="671.3913" y1="195.88" y2="195.88"/><line style="stroke:#0E2356;stroke-width:1;" x1="671.3913" x2="671.3913" y1="195.88" y2="208.88"/><line style="stroke:#0E2356;stroke-width:1;" x1="630.3913" x2="671.3913" y1="208.88" y2="208.88"/><polygon fill="#0E2356" points="640.3913,204.88,630.3913,208.88,640.3913,212.88,636.3913,208.88" style="stroke:#0E2356;stroke-width:1;"/><text fill="#0E2356" font-family="'Outfit'" font-size="12" font-weight="bold" lengthAdjust="spacing" textLength="6.708" x="636.3913" y="183.2">3</text><text fill="#0E2356" font-family="'Outfit'" font-size="12" lengthAdjust="spacing" textLength="154.887" x="647.0993" y="175.64">ADR-060 (go_tests_present)</text><text fill="#0E2356" font-family="'Outfit'" font-size="12" lengthAdjust="spacing" textLength="75.153" x="647.0993" y="190.76">&#8594; policy viol&#233;e</text></g><g class="message" data-entity-1="part3" data-entity-2="part2" id="msg4"><polygon fill="#0E2356" points="289.0513,279.36,279.0513,283.36,289.0513,287.36,285.0513,283.36" style="stroke:#0E2356;stroke-width:1;"/><line style="stroke:#0E2356;stroke-width:1;stroke-dasharray:2,2;" x1="283.0513" x2="628.3913" y1="283.36" y2="283.36"/><text fill="#0E2356" font-family="'Outfit'" font-size="12" font-weight="bold" lengthAdjust="spacing" textLength="7.302" x="295.0513" y="255.56">4</text><text fill="#0E2356" font-family="'Outfit'" font-size="12" lengthAdjust="spacing" textLength="118.809" x="306.3533" y="232.88">422 PLAN_REJECTED</text><text fill="#0E2356" font-family="'Outfit'" font-size="12" lengthAdjust="spacing" textLength="161.703" x="306.3533" y="248">{policy_id: "go_tests_present",</text><text fill="#0E2356" font-family="'Outfit'" font-size="12" lengthAdjust="spacing" textLength="313.5481" x="308.8433" y="263.12">message: "Ajoutez une &#233;tape dont le tool est \"go-test\"...",</text><text fill="#0E2356" font-family="'Outfit'" font-size="12" lengthAdjust="spacing" textLength="103.335" x="308.8433" y="278.24">nature: "amplifier"}</text></g><g class="message" data-entity-1="part2" data-entity-2="part1" id="msg5"><polygon fill="#0E2356" points="61.3983,308.48,51.3983,312.48,61.3983,316.48,57.3983,312.48" style="stroke:#0E2356;stroke-width:1;"/><line style="stroke:#0E2356;stroke-width:1;stroke-dasharray:2,2;" x1="55.3983" x2="277.0513" y1="312.48" y2="312.48"/><text fill="#0E2356" font-family="'Outfit'" font-size="12" font-weight="bold" lengthAdjust="spacing" textLength="6.72" x="67.3983" y="307.36">5</text><text fill="#0E2356" font-family="'Outfit'" font-size="12" lengthAdjust="spacing" textLength="173.289" x="78.1183" y="307.36">violations (message actionnable)</text></g><path d="M55,329.48 L55,376.48 A4,4 0 0 0 59,380.48 L262,380.48 A4,4 0 0 0 266,376.48 L266,335.48 L256,325.48 L59,325.48 A4,4 0 0 0 55,329.48" fill="#FFF0F0" style="stroke:#FFD966;stroke-width:0.5;"/><path d="M256,325.48 L256,333.48 A2,2 0 0 0 258,335.48 L266,335.48 L256,325.48" fill="#FFF0F0" style="stroke:#FFD966;stroke-width:0.5;"/><text fill="#0E2356" font-family="'Outfit'" font-size="12" lengthAdjust="spacing" textLength="187.83" x="61" y="342.48">Le message nomme le crit&#232;re exact</text><text fill="#0E2356" font-family="'Outfit'" font-size="12" lengthAdjust="spacing" textLength="161.676" x="61" y="357.6">&#224; corriger. L'agent lit et ajoute</text><text fill="#0E2356" font-family="'Outfit'" font-size="12" lengthAdjust="spacing" textLength="190.041" x="61" y="372.72">l'&#233;tape manquante, il ne devine pas.</text><g class="message" data-entity-1="part1" data-entity-2="part1" id="msg6"><line style="stroke:#0E2356;stroke-width:1;" x1="50.3983" x2="92.3983" y1="422.08" y2="422.08"/><line style="stroke:#0E2356;stroke-width:1;" x1="92.3983" x2="92.3983" y1="422.08" y2="435.08"/><line style="stroke:#0E2356;stroke-width:1;" x1="51.3983" x2="92.3983" y1="435.08" y2="435.08"/><polygon fill="#0E2356" points="61.3983,431.08,51.3983,435.08,61.3983,439.08,57.3983,435.08" style="stroke:#0E2356;stroke-width:1;"/><text fill="#0E2356" font-family="'Outfit'" font-size="12" font-weight="bold" lengthAdjust="spacing" textLength="6.876" x="57.3983" y="409.4">6</text><text fill="#0E2356" font-family="'Outfit'" font-size="12" lengthAdjust="spacing" textLength="144.267" x="68.2743" y="401.84">ajoute step {tool: "go-test",</text><text fill="#0E2356" font-family="'Outfit'" font-size="12" lengthAdjust="spacing" textLength="199.959" x="70.7643" y="416.96">targets: ["tests/integration_test.go"]}</text></g><g class="message" data-entity-1="part1" data-entity-2="part2" id="msg7"><polygon fill="#0E2356" points="266.0513,460.2,276.0513,464.2,266.0513,468.2,270.0513,464.2" style="stroke:#0E2356;stroke-width:1;"/><line style="stroke:#0E2356;stroke-width:1;" x1="50.3983" x2="272.0513" y1="464.2" y2="464.2"/><text fill="#0E2356" font-family="'Outfit'" font-size="12" font-weight="bold" lengthAdjust="spacing" textLength="6.324" x="57.3983" y="459.08">7</text><text fill="#0E2356" font-family="'Outfit'" font-size="12" lengthAdjust="spacing" textLength="137.58" x="67.7223" y="459.08">lock_in_plan(plan corrig&#233;)</text></g><g class="message" data-entity-1="part2" data-entity-2="part3" id="msg8"><polygon fill="#0E2356" points="617.3913,489.32,627.3913,493.32,617.3913,497.32,621.3913,493.32" style="stroke:#0E2356;stroke-width:1;"/><line style="stroke:#0E2356;stroke-width:1;" x1="278.0513" x2="623.3913" y1="493.32" y2="493.32"/><text fill="#0E2356" font-family="'Outfit'" font-size="12" font-weight="bold" lengthAdjust="spacing" textLength="6.744" x="285.0513" y="488.2">8</text><text fill="#0E2356" font-family="'Outfit'" font-size="12" lengthAdjust="spacing" textLength="103.986" x="295.7953" y="488.2">POST /lock_in_plan</text></g><g class="message" data-entity-1="part3" data-entity-2="part3" id="msg9"><line style="stroke:#0E2356;stroke-width:1;" x1="629.3913" x2="671.3913" y1="522.44" y2="522.44"/><line style="stroke:#0E2356;stroke-width:1;" x1="671.3913" x2="671.3913" y1="522.44" y2="535.44"/><line style="stroke:#0E2356;stroke-width:1;" x1="630.3913" x2="671.3913" y1="535.44" y2="535.44"/><polygon fill="#0E2356" points="640.3913,531.44,630.3913,535.44,640.3913,539.44,636.3913,535.44" style="stroke:#0E2356;stroke-width:1;"/><text fill="#0E2356" font-family="'Outfit'" font-size="12" font-weight="bold" lengthAdjust="spacing" textLength="6.876" x="636.3913" y="517.32">9</text><text fill="#0E2356" font-family="'Outfit'" font-size="12" lengthAdjust="spacing" textLength="135.879" x="647.2673" y="517.32">toutes les policies passent</text></g><g class="message" data-entity-1="part3" data-entity-2="part2" id="msg10"><polygon fill="#0E2356" points="289.0513,560.56,279.0513,564.56,289.0513,568.56,285.0513,564.56" style="stroke:#0E2356;stroke-width:1;"/><line style="stroke:#0E2356;stroke-width:1;stroke-dasharray:2,2;" x1="283.0513" x2="628.3913" y1="564.56" y2="564.56"/><text fill="#0E2356" font-family="'Outfit'" font-size="12" font-weight="bold" lengthAdjust="spacing" textLength="12.522" x="295.0513" y="559.44">10</text><text fill="#0E2356" font-family="'Outfit'" font-size="12" lengthAdjust="spacing" textLength="183.885" x="311.5733" y="559.44">PLAN_LOCKED + execution_ticket</text></g><g class="message" data-entity-1="part2" data-entity-2="part1" id="msg11"><polygon fill="#0E2356" points="61.3983,589.68,51.3983,593.68,61.3983,597.68,57.3983,593.68" style="stroke:#0E2356;stroke-width:1;"/><line style="stroke:#0E2356;stroke-width:1;stroke-dasharray:2,2;" x1="55.3983" x2="277.0513" y1="593.68" y2="593.68"/><text fill="#0E2356" font-family="'Outfit'" font-size="12" font-weight="bold" lengthAdjust="spacing" textLength="9.072" x="67.3983" y="588.56">11</text><text fill="#0E2356" font-family="'Outfit'" font-size="12" lengthAdjust="spacing" textLength="86.157" x="80.4703" y="588.56">ticket disponible</text></g><path d="M5,610.68 L5,657.68 A4,4 0 0 0 9,661.68 L671,661.68 A4,4 0 0 0 675,657.68 L675,616.68 L665,606.68 L9,606.68 A4,4 0 0 0 5,610.68" fill="#E6F4EA" style="stroke:#FFD966;stroke-width:0.5;"/><path d="M665,606.68 L665,614.68 A2,2 0 0 0 667,616.68 L675,616.68 L665,606.68" fill="#E6F4EA" style="stroke:#FFD966;stroke-width:0.5;"/><text fill="#0E2356" font-family="'Outfit'" font-size="12" lengthAdjust="spacing" textLength="220.2871" x="225.446" y="623.68">La r&#233;troaction est s&#233;mantique : le serveur</text><text fill="#0E2356" font-family="'Outfit'" font-size="12" lengthAdjust="spacing" textLength="213.537" x="225.446" y="638.8">dit CE qui manque, pas seulement "non".</text><text fill="#0E2356" font-family="'Outfit'" font-size="12" lengthAdjust="spacing" textLength="195.9" x="225.446" y="653.92">En pratique, 1 &#224; 2 it&#233;rations suffisent.</text><path d="M5,676.04 L5,738.04 A4,4 0 0 0 9,742.04 L671,742.04 A4,4 0 0 0 675,738.04 L675,682.04 L665,672.04 L9,672.04 A4,4 0 0 0 5,676.04" fill="#FFF0F0" style="stroke:#FFD966;stroke-width:0.5;"/><path d="M665,672.04 L665,680.04 A2,2 0 0 0 667,682.04 L675,682.04 L665,672.04" fill="#FFF0F0" style="stroke:#FFD966;stroke-width:0.5;"/><text fill="#0E2356" font-family="'Outfit'" font-size="12" lengthAdjust="spacing" textLength="186.279" x="211.469" y="689.04">Et si l'agent bute 3 fois sur un jeu de</text><text fill="#0E2356" font-family="'Outfit'" font-size="12" lengthAdjust="spacing" textLength="216.12" x="211.469" y="704.16">violations identique, le serveur escalade :</text><text fill="#0E2356" font-family="'Outfit'" font-size="12" lengthAdjust="spacing" textLength="246.489" x="211.469" y="719.28">409 POLICY_CONFLICT &#8212; blocage dur, sortie</text><text fill="#0E2356" font-family="'Outfit'" font-size="12" lengthAdjust="spacing" textLength="248.241" x="211.469" y="734.4">uniquement humaine (ppg escalations resolve).</text><?plantuml-src bLHDRjD05Dxx50ztqKGa9fIg4baWHQc3WD16RJU8e6XYlxZJZcVS-Oc0gX8h3e0u04joZjoa9-7Ds0rfGK98aMDvtdlp_SqyuZ8JBaTGcLLTUuub9fKhHSISLTALSzHHPBaL22TuWHRebocjCRDSIRZzyXreIN1fKKF5jC0EY5rMeAphU85HHDyjptZ5w6Cyy6inC0FXxVvYLHNTCgkw1lKITQXwEvpShpdrQqu3WLuomNFcaKnbgm5nWeLgXyx9v6KKXKsW-yBFWJu8bLtEk9nLWicMVu1Xqi1wPLc5VgH5OzkHBwOUca0za-FJCtYotHdvXStwuF2aspleGQjGCzzkPfL6Gzksf_BswpUebE3P9rXo9TOhaYCqRn3jx-t1P3mucfsahzFXMNeubTTrnupdVOWV3eqxKmab6aCYq_BWGZcBdy59tB1Gn9XSiKe9e5QOqf2k7pADaoG90oIpJlj-LbQ2BpY9VLEp9c2rPls0EAXheDNi22mOBzbSO3kAfB88PFAv1RLe-dP6er5lr8i0ndW75AGgI_IWCitj-gT6m8yqYehMF-w2eXCODz4HF2ID1N9K97ORRYMJLuvYG37Z0gItRCdfhs8cYL3cu15jkNv7fPu4nc85rrwOe6mG9UXXcIxGcZwyZuFQJtoO2XtO1_sJGiKVRluTfvhBUlMV6R8UdY61J1qNxb-OyOO_o4l8olXu-2OzXCUa8cQk1icpIxH_U5X_XfoRIabEhZMcAJfVTL4dGDX93qRxwS2xna2JsbhLLeS4cVMAbBVyog5dJKBMXv3ASx9gcCALuxKvv0m1fm8dw3Bn1rOg6ITKcKgelAAXvgatVWye32lTPCounO9xnjjE_Xti9c8fOUER6sVkFNu62yNzD4s70YxGKKQeSYlCF4VPmFXDXNXcJ32w0lfKlTzxJfwDNmtVpOR7HoDwEGkNtPmiz7dEdUw0KNGj-TbE-cc1xRahcGzaYwwoPcIzAPrU9PROtYBt2m00?></g></svg>