<?plantuml 1.2026.1?><svg xmlns="http://www.w3.org/2000/svg" xmlns:xlink="http://www.w3.org/1999/xlink" contentStyleType="text/css" data-diagram-type="SEQUENCE" height="728px" preserveAspectRatio="none" style="width:797px;height:728px;background:#FFFFFF;" version="1.1" viewBox="0 0 797 728" width="797px" zoomAndPan="magnify"><title>Rejet et correction &#8212; le linter parle, l'agent corrige</title><defs/><g><text fill="#0E2356" font-family="'Outfit'" font-size="14" font-weight="bold" lengthAdjust="spacing" textLength="323.9181" x="236.5341" y="29">Rejet et correction &#8212; le linter parle, l'agent corrige</text><g class="participant-lifeline" data-entity-uid="part1" data-qualified-name="Agent" id="part1-lifeline"><g><title>Agent</title><rect fill="#000000" fill-opacity="0.00000" height="585.64" width="8" x="35.3983" y="91.4"/><line style="stroke:#CFD3DD;stroke-width:0.5;stroke-dasharray:5,5;" x1="39" x2="39" y1="91.4" y2="677.04"/></g></g><g class="participant-lifeline" data-entity-uid="part2" data-qualified-name="MCP" id="part2-lifeline"><g><title>ppg-mcp-server</title><rect fill="#000000" fill-opacity="0.00000" height="585.64" width="8" x="263.0513" y="91.4"/><line style="stroke:#CFD3DD;stroke-width:0.5;stroke-dasharray:5,5;" x1="266.4075" x2="266.4075" y1="91.4" y2="677.04"/></g></g><g class="participant-lifeline" data-entity-uid="part3" data-qualified-name="PPG" id="part3-lifeline"><g><title>Gateway PPG</title><rect fill="#000000" fill-opacity="0.00000" height="585.64" width="8" x="614.3913" y="91.4"/><line style="stroke:#CFD3DD;stroke-width:0.5;stroke-dasharray:5,5;" x1="618.3396" x2="618.3396" y1="91.4" y2="677.04"/></g></g><g class="participant participant-head" data-entity-uid="part1" data-qualified-name="Agent" id="part1-head"><rect fill="#E8F0FE" height="30.38" rx="4" ry="4" style="stroke:#6D9EEB;stroke-width:0.5;" width="50.7965" x="14" y="60.02"/><text fill="#0E2356" font-family="'Outfit'" font-size="13" font-weight="bold" lengthAdjust="spacing" textLength="36.7965" x="21" y="80.02">Agent</text></g><g class="participant participant-tail" data-entity-uid="part1" data-qualified-name="Agent" id="part1-tail"><rect fill="#E8F0FE" height="30.38" rx="4" ry="4" style="stroke:#6D9EEB;stroke-width:0.5;" width="50.7965" x="14" y="676.04"/><text fill="#0E2356" font-family="'Outfit'" font-size="13" font-weight="bold" lengthAdjust="spacing" textLength="36.7965" x="21" y="696.04">Agent</text></g><g class="participant participant-head" data-entity-uid="part2" data-qualified-name="MCP" id="part2-head"><rect fill="#E8F0FE" height="30.38" rx="4" ry="4" style="stroke:#6D9EEB;stroke-width:0.5;" width="113.2875" x="210.4075" y="60.02"/><text fill="#0E2356" font-family="'Outfit'" font-size="13" font-weight="bold" lengthAdjust="spacing" textLength="99.2875" x="217.4075" y="80.02">ppg-mcp-server</text></g><g class="participant participant-tail" data-entity-uid="part2" data-qualified-name="MCP" id="part2-tail"><rect fill="#E8F0FE" height="30.38" rx="4" ry="4" style="stroke:#6D9EEB;stroke-width:0.5;" width="113.2875" x="210.4075" y="676.04"/><text fill="#0E2356" font-family="'Outfit'" font-size="13" font-weight="bold" lengthAdjust="spacing" textLength="99.2875" x="217.4075" y="696.04">ppg-mcp-server</text></g><g class="participant participant-head" data-entity-uid="part3" data-qualified-name="PPG" id="part3-head"><rect fill="#E8F0FE" height="46.76" rx="4" ry="4" style="stroke:#6D9EEB;stroke-width:0.5;" width="98.1035" x="569.3396" y="43.64"/><text fill="#0E2356" font-family="'Outfit'" font-size="13" font-weight="bold" lengthAdjust="spacing" textLength="84.1035" x="576.3396" y="63.64">Gateway PPG</text><text fill="#0E2356" font-family="'Outfit'" font-size="13" font-weight="bold" lengthAdjust="spacing" textLength="73.463" x="581.6598" y="80.02">(linter Rego)</text></g><g class="participant participant-tail" data-entity-uid="part3" data-qualified-name="PPG" id="part3-tail"><rect fill="#E8F0FE" height="46.76" rx="4" ry="4" style="stroke:#6D9EEB;stroke-width:0.5;" width="98.1035" x="569.3396" y="676.04"/><text fill="#0E2356" font-family="'Outfit'" font-size="13" font-weight="bold" lengthAdjust="spacing" textLength="84.1035" x="576.3396" y="696.04">Gateway PPG</text><text fill="#0E2356" font-family="'Outfit'" font-size="13" font-weight="bold" lengthAdjust="spacing" textLength="73.463" x="581.6598" y="712.42">(linter Rego)</text></g><g class="message" data-entity-1="part1" data-entity-2="part2" id="msg1"><polygon fill="#0E2356" points="255.0513,118.52,265.0513,122.52,255.0513,126.52,259.0513,122.52" style="stroke:#0E2356;stroke-width:1;"/><line style="stroke:#0E2356;stroke-width:1;" x1="39.3983" x2="261.0513" y1="122.52" y2="122.52"/><text fill="#0E2356" font-family="'Outfit'" font-size="12" font-weight="bold" lengthAdjust="spacing" textLength="4.536" x="46.3983" y="117.4">1</text><text fill="#0E2356" font-family="'Outfit'" font-size="12" lengthAdjust="spacing" textLength="195.117" x="54.9343" y="117.4">lock_in_plan(plan sans &#233;tape de test)</text></g><g class="message" data-entity-1="part2" data-entity-2="part3" id="msg2"><polygon fill="#0E2356" points="606.3913,147.64,616.3913,151.64,606.3913,155.64,610.3913,151.64" style="stroke:#0E2356;stroke-width:1;"/><line style="stroke:#0E2356;stroke-width:1;" x1="267.0513" x2="612.3913" y1="151.64" y2="151.64"/><text fill="#0E2356" font-family="'Outfit'" font-size="12" font-weight="bold" lengthAdjust="spacing" textLength="6.768" x="274.0513" y="146.52">2</text><text fill="#0E2356" font-family="'Outfit'" font-size="12" lengthAdjust="spacing" textLength="103.986" x="284.8193" y="146.52">POST /lock_in_plan</text></g><g class="message" data-entity-1="part3" data-entity-2="part3" id="msg3"><line style="stroke:#0E2356;stroke-width:1;" x1="618.3913" x2="660.3913" y1="195.88" y2="195.88"/><line style="stroke:#0E2356;stroke-width:1;" x1="660.3913" x2="660.3913" y1="195.88" y2="208.88"/><line style="stroke:#0E2356;stroke-width:1;" x1="619.3913" x2="660.3913" y1="208.88" y2="208.88"/><polygon fill="#0E2356" points="629.3913,204.88,619.3913,208.88,629.3913,212.88,625.3913,208.88" style="stroke:#0E2356;stroke-width:1;"/><text fill="#0E2356" font-family="'Outfit'" font-size="12" font-weight="bold" lengthAdjust="spacing" textLength="6.708" x="625.3913" y="183.2">3</text><text fill="#0E2356" font-family="'Outfit'" font-size="12" lengthAdjust="spacing" textLength="154.887" x="636.0993" y="175.64">ADR-060 (go_tests_present)</text><text fill="#0E2356" font-family="'Outfit'" font-size="12" lengthAdjust="spacing" textLength="75.153" x="636.0993" y="190.76">&#8594; policy viol&#233;e</text></g><g class="message" data-entity-1="part3" data-entity-2="part2" id="msg4"><polygon fill="#0E2356" points="278.0513,279.36,268.0513,283.36,278.0513,287.36,274.0513,283.36" style="stroke:#0E2356;stroke-width:1;"/><line style="stroke:#0E2356;stroke-width:1;stroke-dasharray:2,2;" x1="272.0513" x2="617.3913" y1="283.36" y2="283.36"/><text fill="#0E2356" font-family="'Outfit'" font-size="12" font-weight="bold" lengthAdjust="spacing" textLength="7.302" x="284.0513" y="255.56">4</text><text fill="#0E2356" font-family="'Outfit'" font-size="12" lengthAdjust="spacing" textLength="118.809" x="295.3533" y="232.88">422 PLAN_REJECTED</text><text fill="#0E2356" font-family="'Outfit'" font-size="12" lengthAdjust="spacing" textLength="161.703" x="295.3533" y="248">{policy_id: "go_tests_present",</text><text fill="#0E2356" font-family="'Outfit'" font-size="12" lengthAdjust="spacing" textLength="313.5481" x="297.8433" y="263.12">message: "Ajoutez une &#233;tape dont le tool est \"go-test\"...",</text><text fill="#0E2356" font-family="'Outfit'" font-size="12" lengthAdjust="spacing" textLength="103.335" x="297.8433" y="278.24">nature: "amplifier"}</text></g><g class="message" data-entity-1="part2" data-entity-2="part1" id="msg5"><polygon fill="#0E2356" points="50.3983,308.48,40.3983,312.48,50.3983,316.48,46.3983,312.48" style="stroke:#0E2356;stroke-width:1;"/><line style="stroke:#0E2356;stroke-width:1;stroke-dasharray:2,2;" x1="44.3983" x2="266.0513" y1="312.48" y2="312.48"/><text fill="#0E2356" font-family="'Outfit'" font-size="12" font-weight="bold" lengthAdjust="spacing" textLength="6.72" x="56.3983" y="307.36">5</text><text fill="#0E2356" font-family="'Outfit'" font-size="12" lengthAdjust="spacing" textLength="173.289" x="67.1183" y="307.36">violations (message actionnable)</text></g><path d="M44,329.48 L44,376.48 A4,4 0 0 0 48,380.48 L251,380.48 A4,4 0 0 0 255,376.48 L255,335.48 L245,325.48 L48,325.48 A4,4 0 0 0 44,329.48" fill="#FFF0F0" style="stroke:#FFD966;stroke-width:0.5;"/><path d="M245,325.48 L245,333.48 A2,2 0 0 0 247,335.48 L255,335.48 L245,325.48" fill="#FFF0F0" style="stroke:#FFD966;stroke-width:0.5;"/><text fill="#0E2356" font-family="'Outfit'" font-size="12" lengthAdjust="spacing" textLength="187.83" x="50" y="342.48">Le message nomme le crit&#232;re exact</text><text fill="#0E2356" font-family="'Outfit'" font-size="12" lengthAdjust="spacing" textLength="161.676" x="50" y="357.6">&#224; corriger. L'agent lit et ajoute</text><text fill="#0E2356" font-family="'Outfit'" font-size="12" lengthAdjust="spacing" textLength="190.041" x="50" y="372.72">l'&#233;tape manquante, il ne devine pas.</text><g class="message" data-entity-1="part1" data-entity-2="part1" id="msg6"><line style="stroke:#0E2356;stroke-width:1;" x1="39.3983" x2="81.3983" y1="422.08" y2="422.08"/><line style="stroke:#0E2356;stroke-width:1;" x1="81.3983" x2="81.3983" y1="422.08" y2="435.08"/><line style="stroke:#0E2356;stroke-width:1;" x1="40.3983" x2="81.3983" y1="435.08" y2="435.08"/><polygon fill="#0E2356" points="50.3983,431.08,40.3983,435.08,50.3983,439.08,46.3983,435.08" style="stroke:#0E2356;stroke-width:1;"/><text fill="#0E2356" font-family="'Outfit'" font-size="12" font-weight="bold" lengthAdjust="spacing" textLength="6.876" x="46.3983" y="409.4">6</text><text fill="#0E2356" font-family="'Outfit'" font-size="12" lengthAdjust="spacing" textLength="144.267" x="57.2743" y="401.84">ajoute step {tool: "go-test",</text><text fill="#0E2356" font-family="'Outfit'" font-size="12" lengthAdjust="spacing" textLength="199.959" x="59.7643" y="416.96">targets: ["tests/integration_test.go"]}</text></g><g class="message" data-entity-1="part1" data-entity-2="part2" id="msg7"><polygon fill="#0E2356" points="255.0513,460.2,265.0513,464.2,255.0513,468.2,259.0513,464.2" style="stroke:#0E2356;stroke-width:1;"/><line style="stroke:#0E2356;stroke-width:1;" x1="39.3983" x2="261.0513" y1="464.2" y2="464.2"/><text fill="#0E2356" font-family="'Outfit'" font-size="12" font-weight="bold" lengthAdjust="spacing" textLength="6.324" x="46.3983" y="459.08">7</text><text fill="#0E2356" font-family="'Outfit'" font-size="12" lengthAdjust="spacing" textLength="137.58" x="56.7223" y="459.08">lock_in_plan(plan corrig&#233;)</text></g><g class="message" data-entity-1="part2" data-entity-2="part3" id="msg8"><polygon fill="#0E2356" points="606.3913,489.32,616.3913,493.32,606.3913,497.32,610.3913,493.32" style="stroke:#0E2356;stroke-width:1;"/><line style="stroke:#0E2356;stroke-width:1;" x1="267.0513" x2="612.3913" y1="493.32" y2="493.32"/><text fill="#0E2356" font-family="'Outfit'" font-size="12" font-weight="bold" lengthAdjust="spacing" textLength="6.744" x="274.0513" y="488.2">8</text><text fill="#0E2356" font-family="'Outfit'" font-size="12" lengthAdjust="spacing" textLength="103.986" x="284.7953" y="488.2">POST /lock_in_plan</text></g><g class="message" data-entity-1="part3" data-entity-2="part3" id="msg9"><line style="stroke:#0E2356;stroke-width:1;" x1="618.3913" x2="660.3913" y1="522.44" y2="522.44"/><line style="stroke:#0E2356;stroke-width:1;" x1="660.3913" x2="660.3913" y1="522.44" y2="535.44"/><line style="stroke:#0E2356;stroke-width:1;" x1="619.3913" x2="660.3913" y1="535.44" y2="535.44"/><polygon fill="#0E2356" points="629.3913,531.44,619.3913,535.44,629.3913,539.44,625.3913,535.44" style="stroke:#0E2356;stroke-width:1;"/><text fill="#0E2356" font-family="'Outfit'" font-size="12" font-weight="bold" lengthAdjust="spacing" textLength="6.876" x="625.3913" y="517.32">9</text><text fill="#0E2356" font-family="'Outfit'" font-size="12" lengthAdjust="spacing" textLength="135.879" x="636.2673" y="517.32">toutes les policies passent</text></g><g class="message" data-entity-1="part3" data-entity-2="part2" id="msg10"><polygon fill="#0E2356" points="278.0513,560.56,268.0513,564.56,278.0513,568.56,274.0513,564.56" style="stroke:#0E2356;stroke-width:1;"/><line style="stroke:#0E2356;stroke-width:1;stroke-dasharray:2,2;" x1="272.0513" x2="617.3913" y1="564.56" y2="564.56"/><text fill="#0E2356" font-family="'Outfit'" font-size="12" font-weight="bold" lengthAdjust="spacing" textLength="12.522" x="284.0513" y="559.44">10</text><text fill="#0E2356" font-family="'Outfit'" font-size="12" lengthAdjust="spacing" textLength="183.885" x="300.5733" y="559.44">PLAN_LOCKED + execution_ticket</text></g><g class="message" data-entity-1="part2" data-entity-2="part1" id="msg11"><polygon fill="#0E2356" points="50.3983,589.68,40.3983,593.68,50.3983,597.68,46.3983,593.68" style="stroke:#0E2356;stroke-width:1;"/><line style="stroke:#0E2356;stroke-width:1;stroke-dasharray:2,2;" x1="44.3983" x2="266.0513" y1="593.68" y2="593.68"/><text fill="#0E2356" font-family="'Outfit'" font-size="12" font-weight="bold" lengthAdjust="spacing" textLength="9.072" x="56.3983" y="588.56">11</text><text fill="#0E2356" font-family="'Outfit'" font-size="12" lengthAdjust="spacing" textLength="86.157" x="69.4703" y="588.56">ticket disponible</text></g><path d="M5,610.68 L5,657.68 A4,4 0 0 0 9,661.68 L649,661.68 A4,4 0 0 0 653,657.68 L653,616.68 L643,606.68 L9,606.68 A4,4 0 0 0 5,610.68" fill="#E6F4EA" style="stroke:#FFD966;stroke-width:0.5;"/><path d="M643,606.68 L643,614.68 A2,2 0 0 0 645,616.68 L653,616.68 L643,606.68" fill="#E6F4EA" style="stroke:#FFD966;stroke-width:0.5;"/><text fill="#0E2356" font-family="'Outfit'" font-size="12" lengthAdjust="spacing" textLength="227.4" x="211.0215" y="623.68">La r&#233;troaction est s&#233;mantique : la gateway</text><text fill="#0E2356" font-family="'Outfit'" font-size="12" lengthAdjust="spacing" textLength="213.537" x="211.0215" y="638.8">dit CE qui manque, pas seulement "non".</text><text fill="#0E2356" font-family="'Outfit'" font-size="12" lengthAdjust="spacing" textLength="195.9" x="211.0215" y="653.92">En pratique, 1 &#224; 2 it&#233;rations suffisent.</text><?plantuml-src bLJDJXin4BxxAQRBWKGbIueGXnmgHM63rAObIharLMGsayNWjOtjfQK8gQS-GDK7wB5vZhm9JzAnlI2WXwfIbAmytypEz-Ey4AgKpH91brxt_1dMc9kcbemtNgkcFaNBc1TU8ipm73tGfzJMOkc5Ld3txITGIGhbqOBXLk8Eo6rUeKeuKI5ZTEv5AGodmsmOQXbm1_7fQT6OgbUNfkVGNg6Dg7UZwLFC4VVucL_3T7eqLvtsrJEiT3VYwPYnE1fwhqCt343gyc8XrC98hZhX2nnN3ZPhpmq2iVVeV9S5CFNG1EgP7dyuWTt7dImK7kh3mrclVz27JgKNeTqjZ4L7h-tErTtt7s2q5EKrN0ajDsiI8JO_RBI_jmVJoV3zObQyAKOdnU5StQIEXLWE87i-DDkPAwZHEPAMoiDptNZy2et21nQQ69CNNci9r0fp6j8BG-PPdkTnWEA-iQ6VrqQAbI29RnDhMYnfDeWRy-2kWqxxHk3HRiLF9NOPKzeZaBLd7lIgxTiQZyVzSPy1JF1-KL2whZ4iLLhXDxyj0dwXKGJQ_BgFXyrXqWP6YfWl7iaHI6wtt6gkBXiody8b9AXWsPMW7yDTpb0j8MpqoFLxAcaIE8y6Re8mKTaeIjJ3SrkXTmFuc4MrTqEOAXlPH_tpIcUVRlyTfyHbi_xF3FcmdYE1N8gB20_S1SEVvILcPN8yUbiSmajI4SicBIdA2_H_UPYEOIcSqKgGQwrfccvL0kt45RQAW_5-CGokSR2ajjN9wfWWjrcJybvSDXXOSwZIrIFuagmQ5N3PY6GEEKEBWyD6qbz8kAPAgomdPA7014KZvbKmVWye36lRPimrgvK8Z1yv-GS0?></g></svg>