<?plantuml 1.2026.1?><svg xmlns="http://www.w3.org/2000/svg" xmlns:xlink="http://www.w3.org/1999/xlink" contentStyleType="text/css" data-diagram-type="SEQUENCE" height="1113px" preserveAspectRatio="none" style="width:820px;height:1113px;background:#FFFFFF;" version="1.1" viewBox="0 0 820 1113" width="820px" zoomAndPan="magnify"><title>Contextual execution &#8212; a Smart Platform Tool consumes the ticket</title><defs/><g><text fill="#0E2356" font-family="'Outfit'" font-size="14" font-weight="bold" lengthAdjust="spacing" textLength="428.3651" x="191.9561" y="29">Contextual execution &#8212; a Smart Platform Tool consumes the ticket</text><rect fill="#E8F0FE" height="1056.36" rx="4" ry="4" style="stroke:#6D9EEB;stroke-width:0.5;" width="465.566" x="228.0833" y="44.64"/><text fill="#0E2356" font-family="'Outfit'" font-size="13" font-weight="bold" lengthAdjust="spacing" textLength="123.9485" x="398.8921" y="57.64">Smart Platform Tool</text><rect fill="none" height="159.22" rx="4" ry="4" style="stroke:#CFD3DD;stroke-width:1.5;" width="452.7383" x="34" y="334.24"/><rect fill="none" height="232.44" rx="4" ry="4" style="stroke:#CFD3DD;stroke-width:1.5;" width="769.2773" x="34" y="753.42"/><g class="participant-lifeline" data-entity-uid="part1" data-qualified-name="Agent" id="part1-lifeline"><g><title>AI Agent</title><rect fill="#000000" fill-opacity="0.00000" height="864.08" width="8" x="69.2698" y="138.78"/><line style="stroke:#CFD3DD;stroke-width:0.5;stroke-dasharray:5,5;" x1="73" x2="73" y1="138.78" y2="1002.86"/></g></g><g class="participant-lifeline" data-entity-uid="part2" data-qualified-name="Verifier" id="part2-lifeline"><g><title>Ticket Verifier</title><rect fill="#000000" fill-opacity="0.00000" height="864.08" width="8" x="283.6058" y="138.78"/><line style="stroke:#CFD3DD;stroke-width:0.5;stroke-dasharray:5,5;" x1="287.0833" x2="287.0833" y1="138.78" y2="1002.86"/></g></g><g class="participant-lifeline" data-entity-uid="part3" data-qualified-name="Exec" id="part3-lifeline"><g><title>Sandbox</title><rect fill="#000000" fill-opacity="0.00000" height="864.08" width="8" x="438.7568" y="138.78"/><line style="stroke:#CFD3DD;stroke-width:0.5;stroke-dasharray:5,5;" x1="441.7753" x2="441.7753" y1="138.78" y2="1002.86"/></g></g><g class="participant-lifeline" data-entity-uid="part4" data-qualified-name="Analyzer" id="part4-lifeline"><g><title>Semantic Analyzer</title><rect fill="#000000" fill-opacity="0.00000" height="864.08" width="8" x="615.1368" y="138.78"/><line style="stroke:#CFD3DD;stroke-width:0.5;stroke-dasharray:5,5;" x1="618.6243" x2="618.6243" y1="138.78" y2="1002.86"/></g></g><g class="participant-lifeline" data-entity-uid="part5" data-qualified-name="Target" id="part5-lifeline"><g><title>Target</title><rect fill="#000000" fill-opacity="0.00000" height="864.08" width="8" x="756.4098" y="138.78"/><line style="stroke:#CFD3DD;stroke-width:0.5;stroke-dasharray:5,5;" x1="759.5423" x2="759.5423" y1="138.78" y2="1002.86"/></g></g><g class="participant participant-head" data-entity-uid="part1" data-qualified-name="Agent" id="part1-head"><text fill="#0E2356" font-family="'Outfit'" font-size="13" font-weight="bold" lengthAdjust="spacing" textLength="52.5395" x="44" y="135.4">AI Agent</text><ellipse cx="73.2698" cy="70.9" fill="#DAF6F9" rx="8" ry="8" style="stroke:#0E2356;stroke-width:0.5;"/><path d="M73.2698,78.9 L73.2698,105.9 M60.2698,86.9 L86.2698,86.9 M73.2698,105.9 L60.2698,120.9 M73.2698,105.9 L86.2698,120.9" fill="none" style="stroke:#0E2356;stroke-width:0.5;"/></g><g class="participant participant-tail" data-entity-uid="part1" data-qualified-name="Agent" id="part1-tail"><text fill="#0E2356" font-family="'Outfit'" font-size="13" font-weight="bold" lengthAdjust="spacing" textLength="52.5395" x="44" y="1014.86">AI Agent</text><ellipse cx="73.2698" cy="1026.74" fill="#DAF6F9" rx="8" ry="8" style="stroke:#0E2356;stroke-width:0.5;"/><path d="M73.2698,1034.74 L73.2698,1061.74 M60.2698,1042.74 L86.2698,1042.74 M73.2698,1061.74 L60.2698,1076.74 M73.2698,1061.74 L86.2698,1076.74" fill="none" style="stroke:#0E2356;stroke-width:0.5;"/></g><g class="participant participant-head" data-entity-uid="part2" data-qualified-name="Verifier" id="part2-head"><rect fill="#E8F0FE" height="42.98" rx="4" ry="4" style="stroke:#6D9EEB;stroke-width:0.5;" width="111.045" x="232.0833" y="94.8"/><text fill="#0E2356" font-family="'Outfit'" font-size="13" font-weight="bold" lengthAdjust="spacing" textLength="87.4965" x="243.8576" y="114.8">Ticket Verifier</text><text fill="#0E2356" font-family="'Outfit'" font-size="10" font-style="italic" font-weight="bold" lengthAdjust="spacing" textLength="97.045" x="239.0833" y="128.18">least-privilege guard</text></g><g class="participant participant-tail" data-entity-uid="part2" data-qualified-name="Verifier" id="part2-tail"><rect fill="#E8F0FE" height="42.98" rx="4" ry="4" style="stroke:#6D9EEB;stroke-width:0.5;" width="111.045" x="232.0833" y="1001.86"/><text fill="#0E2356" font-family="'Outfit'" font-size="13" font-weight="bold" lengthAdjust="spacing" textLength="87.4965" x="243.8576" y="1021.86">Ticket Verifier</text><text fill="#0E2356" font-family="'Outfit'" font-size="10" font-style="italic" font-weight="bold" lengthAdjust="spacing" textLength="97.045" x="239.0833" y="1035.24">least-privilege guard</text></g><g class="participant participant-head" data-entity-uid="part3" data-qualified-name="Exec" id="part3-head"><rect fill="#E8F0FE" height="46.76" rx="4" ry="4" style="stroke:#6D9EEB;stroke-width:0.5;" width="67.963" x="408.7753" y="91.02"/><text fill="#0E2356" font-family="'Outfit'" font-size="13" font-weight="bold" lengthAdjust="spacing" textLength="52.663" x="416.4253" y="111.02">Sandbox</text><text fill="#0E2356" font-family="'Outfit'" font-size="13" font-weight="bold" lengthAdjust="spacing" textLength="53.963" x="415.7753" y="127.4">Executor</text></g><g class="participant participant-tail" data-entity-uid="part3" data-qualified-name="Exec" id="part3-tail"><rect fill="#E8F0FE" height="46.76" rx="4" ry="4" style="stroke:#6D9EEB;stroke-width:0.5;" width="67.963" x="408.7753" y="1001.86"/><text fill="#0E2356" font-family="'Outfit'" font-size="13" font-weight="bold" lengthAdjust="spacing" textLength="52.663" x="416.4253" y="1021.86">Sandbox</text><text fill="#0E2356" font-family="'Outfit'" font-size="13" font-weight="bold" lengthAdjust="spacing" textLength="53.963" x="415.7753" y="1038.24">Executor</text></g><g class="participant participant-head" data-entity-uid="part4" data-qualified-name="Analyzer" id="part4-head"><rect fill="#E8F0FE" height="42.98" rx="4" ry="4" style="stroke:#6D9EEB;stroke-width:0.5;" width="141.025" x="548.6243" y="94.8"/><text fill="#0E2356" font-family="'Outfit'" font-size="13" font-weight="bold" lengthAdjust="spacing" textLength="112.8075" x="562.7331" y="114.8">Semantic Analyzer</text><text fill="#0E2356" font-family="'Outfit'" font-size="10" font-style="italic" font-weight="bold" lengthAdjust="spacing" textLength="127.025" x="555.6243" y="128.18">amplifier &#8212; the crown jewel</text></g><g class="participant participant-tail" data-entity-uid="part4" data-qualified-name="Analyzer" id="part4-tail"><rect fill="#E8F0FE" height="42.98" rx="4" ry="4" style="stroke:#6D9EEB;stroke-width:0.5;" width="141.025" x="548.6243" y="1001.86"/><text fill="#0E2356" font-family="'Outfit'" font-size="13" font-weight="bold" lengthAdjust="spacing" textLength="112.8075" x="562.7331" y="1021.86">Semantic Analyzer</text><text fill="#0E2356" font-family="'Outfit'" font-size="10" font-style="italic" font-weight="bold" lengthAdjust="spacing" textLength="127.025" x="555.6243" y="1035.24">amplifier &#8212; the crown jewel</text></g><g class="participant participant-head" data-entity-uid="part5" data-qualified-name="Target" id="part5-head"><text fill="#0E2356" font-family="'Outfit'" font-size="13" lengthAdjust="spacing" textLength="40.4137" x="737.2029" y="102.64">Target</text><text fill="#0E2356" font-family="'Outfit'" font-size="13" lengthAdjust="spacing" textLength="59.735" x="727.5423" y="119.02">(code, DB,</text><text fill="#0E2356" font-family="'Outfit'" font-size="13" lengthAdjust="spacing" textLength="53.2025" x="730.8086" y="135.4">sandbox)</text><path d="M742.4098,53.64 C742.4098,43.64 760.4098,43.64 760.4098,43.64 C760.4098,43.64 778.4098,43.64 778.4098,53.64 L778.4098,79.64 C778.4098,89.64 760.4098,89.64 760.4098,89.64 C760.4098,89.64 742.4098,89.64 742.4098,79.64 L742.4098,53.64" fill="#E8F0FE" style="stroke:#6D9EEB;stroke-width:0.5;"/><path d="M742.4098,53.64 C742.4098,63.64 760.4098,63.64 760.4098,63.64 C760.4098,63.64 778.4098,63.64 778.4098,53.64" fill="none" style="stroke:#6D9EEB;stroke-width:0.5;"/></g><g class="participant participant-tail" data-entity-uid="part5" data-qualified-name="Target" id="part5-tail"><text fill="#0E2356" font-family="'Outfit'" font-size="13" lengthAdjust="spacing" textLength="40.4137" x="737.2029" y="1014.86">Target</text><text fill="#0E2356" font-family="'Outfit'" font-size="13" lengthAdjust="spacing" textLength="59.735" x="727.5423" y="1031.24">(code, DB,</text><text fill="#0E2356" font-family="'Outfit'" font-size="13" lengthAdjust="spacing" textLength="53.2025" x="730.8086" y="1047.62">sandbox)</text><path d="M742.4098,1061 C742.4098,1051 760.4098,1051 760.4098,1051 C760.4098,1051 778.4098,1051 778.4098,1061 L778.4098,1087 C778.4098,1097 760.4098,1097 760.4098,1097 C760.4098,1097 742.4098,1097 742.4098,1087 L742.4098,1061" fill="#E8F0FE" style="stroke:#6D9EEB;stroke-width:0.5;"/><path d="M742.4098,1061 C742.4098,1071 760.4098,1071 760.4098,1071 C760.4098,1071 778.4098,1071 778.4098,1061" fill="none" style="stroke:#6D9EEB;stroke-width:0.5;"/></g><path d="M5,157.78 L5,186.78 A4,4 0 0 0 9,190.78 L137,190.78 A4,4 0 0 0 141,186.78 L141,163.78 L131,153.78 L9,153.78 A4,4 0 0 0 5,157.78" fill="#FFEDB8" style="stroke:#FFD966;stroke-width:0.5;"/><path d="M131,153.78 L131,161.78 A2,2 0 0 0 133,163.78 L141,163.78 L131,153.78" fill="#FFEDB8" style="stroke:#FFD966;stroke-width:0.5;"/><text fill="#0E2356" font-family="'Outfit'" font-size="11" lengthAdjust="spacing" textLength="91.3495" x="11" y="169.78">The agent holds its</text><text fill="#0E2356" font-family="'Outfit'" font-size="11" font-weight="bold" lengthAdjust="spacing" textLength="83.8915" x="11" y="183.64">execution_ticket</text><text fill="#0E2356" font-family="'Outfit'" font-size="11" lengthAdjust="spacing" textLength="29.755" x="97.174" y="183.64">(JWT)</text><rect fill="#E8F0FE" height="3" rx="4" ry="4" style="stroke:#E8F0FE;stroke-width:1;" width="813.2773" x="0" y="217.69"/><line style="stroke:#6D9EEB;stroke-width:1;" x1="0" x2="813.2773" y1="217.69" y2="217.69"/><line style="stroke:#6D9EEB;stroke-width:1;" x1="0" x2="813.2773" y1="220.69" y2="220.69"/><rect fill="#E8F0FE" height="24.38" rx="4" ry="4" style="stroke:#6D9EEB;stroke-width:2;" width="197.3" x="307.9886" y="206.5"/><text fill="#0E2356" font-family="'Outfit'" font-size="13" font-weight="bold" lengthAdjust="spacing" textLength="180.83" x="313.9886" y="223.5">1 &#8212; Scope verification (in-tool)</text><g class="message" data-entity-1="part1" data-entity-2="part2" id="msg1"><polygon fill="#0E2356" points="275.6058,258,285.6058,262,275.6058,266,279.6058,262" style="stroke:#0E2356;stroke-width:1;"/><line style="stroke:#0E2356;stroke-width:1;" x1="73.2698" x2="281.6058" y1="262" y2="262"/><text fill="#0E2356" font-family="'Outfit'" font-size="12" font-weight="bold" lengthAdjust="spacing" textLength="4.536" x="80.2698" y="256.88">1</text><text fill="#0E2356" font-family="'Outfit'" font-size="12" lengthAdjust="spacing" textLength="181.8" x="88.8058" y="256.88">call(tool, targets, payload) + ticket</text></g><g class="message" data-entity-1="part2" data-entity-2="part2" id="msg2"><line style="stroke:#0E2356;stroke-width:1;" x1="287.6058" x2="329.6058" y1="306.24" y2="306.24"/><line style="stroke:#0E2356;stroke-width:1;" x1="329.6058" x2="329.6058" y1="306.24" y2="319.24"/><line style="stroke:#0E2356;stroke-width:1;" x1="288.6058" x2="329.6058" y1="319.24" y2="319.24"/><polygon fill="#0E2356" points="298.6058,315.24,288.6058,319.24,298.6058,323.24,294.6058,319.24" style="stroke:#0E2356;stroke-width:1;"/><text fill="#0E2356" font-family="'Outfit'" font-size="12" font-weight="bold" lengthAdjust="spacing" textLength="6.768" x="294.6058" y="293.56">2</text><text fill="#0E2356" font-family="'Outfit'" font-size="12" lengthAdjust="spacing" textLength="67.185" x="305.3738" y="286">decode JWT</text><text fill="#0E2356" font-family="'Outfit'" font-size="12" lengthAdjust="spacing" textLength="130.383" x="305.3738" y="301.12">check plan_hash + scope</text></g><path d="M38,334.24 L95.315,334.24 L95.315,342.62 L85.315,352.62 L34,352.62 L34,338.24 A4,4 0 0 1 38,334.24" fill="#E8F0FE" style="stroke:#CFD3DD;stroke-width:1.5;"/><rect fill="none" height="159.22" rx="4" ry="4" style="stroke:#CFD3DD;stroke-width:1.5;" width="452.7383" x="34" y="334.24"/><text fill="#0E2356" font-family="'Outfit'" font-size="13" font-weight="bold" lengthAdjust="spacing" textLength="16.315" x="49" y="348.24">alt</text><text fill="#0E2356" font-family="'Outfit'" font-size="13" font-weight="bold" lengthAdjust="spacing" textLength="4.5305" x="110.315" y="349.24">[</text><text fill="#EA4335" font-family="'Outfit'" font-size="13" font-weight="bold" lengthAdjust="spacing" textLength="176.735" x="114.8455" y="349.24">action outside the locked plan</text><text fill="#0E2356" font-family="'Outfit'" font-size="13" font-weight="bold" lengthAdjust="spacing" textLength="4.5305" x="291.5805" y="349.24">]</text><g class="message" data-entity-1="part2" data-entity-2="part1" id="msg3"><polygon fill="#0E2356" points="84.2698,386.24,74.2698,390.24,84.2698,394.24,80.2698,390.24" style="stroke:#0E2356;stroke-width:1;"/><line style="stroke:#0E2356;stroke-width:1;stroke-dasharray:2,2;" x1="78.2698" x2="286.6058" y1="390.24" y2="390.24"/><text fill="#0E2356" font-family="'Outfit'" font-size="12" font-weight="bold" lengthAdjust="spacing" textLength="6.708" x="90.2698" y="377.56">3</text><text fill="#EA4335" font-family="'Outfit'" font-size="12" font-weight="bold" lengthAdjust="spacing" textLength="132.396" x="100.9778" y="370">OUT_OF_PLAN_SCOPE</text><text fill="#0E2356" font-family="'Outfit'" font-size="12" lengthAdjust="spacing" textLength="112.362" x="100.9778" y="385.12">{attempted, allowed}</text></g><path d="M78,407.24 L78,436.24 A4,4 0 0 0 82,440.24 L208,440.24 A4,4 0 0 0 212,436.24 L212,413.24 L202,403.24 L82,403.24 A4,4 0 0 0 78,407.24" fill="#FFF0F0" style="stroke:#FFD966;stroke-width:0.5;"/><path d="M202,403.24 L202,411.24 A2,2 0 0 0 204,413.24 L212,413.24 L202,403.24" fill="#FFF0F0" style="stroke:#FFD966;stroke-width:0.5;"/><text fill="#0E2356" font-family="'Outfit'" font-size="11" lengthAdjust="spacing" textLength="113.542" x="84" y="419.24">Deterministic refusal &#8212;</text><text fill="#0E2356" font-family="'Outfit'" font-size="11" lengthAdjust="spacing" textLength="85.415" x="84" y="433.1">no damage done.</text><line style="stroke:#CFD3DD;stroke-width:1;stroke-dasharray:2,2;" x1="34" x2="486.7383" y1="446.96" y2="446.96"/><text fill="#0E2356" font-family="'Outfit'" font-size="13" font-weight="bold" lengthAdjust="spacing" textLength="123.4545" x="39" y="459.96">[action within scope]</text><g class="message" data-entity-1="part2" data-entity-2="part3" id="msg4"><polygon fill="#0E2356" points="430.7568,481.46,440.7568,485.46,430.7568,489.46,434.7568,485.46" style="stroke:#0E2356;stroke-width:1;"/><line style="stroke:#0E2356;stroke-width:1;" x1="287.6058" x2="436.7568" y1="485.46" y2="485.46"/><text fill="#0E2356" font-family="'Outfit'" font-size="12" font-weight="bold" lengthAdjust="spacing" textLength="7.302" x="294.6058" y="480.34">4</text><text fill="#0E2356" font-family="'Outfit'" font-size="12" lengthAdjust="spacing" textLength="50.445" x="305.9078" y="480.34">authorize</text></g><rect fill="#E8F0FE" height="3" rx="4" ry="4" style="stroke:#E8F0FE;stroke-width:1;" width="813.2773" x="0" y="521.65"/><line style="stroke:#6D9EEB;stroke-width:1;" x1="0" x2="813.2773" y1="521.65" y2="521.65"/><line style="stroke:#6D9EEB;stroke-width:1;" x1="0" x2="813.2773" y1="524.65" y2="524.65"/><rect fill="#E8F0FE" height="24.38" rx="4" ry="4" style="stroke:#6D9EEB;stroke-width:2;" width="168.154" x="322.5616" y="510.46"/><text fill="#0E2356" font-family="'Outfit'" font-size="13" font-weight="bold" lengthAdjust="spacing" textLength="151.684" x="328.5616" y="527.46">2 &#8212; Sandboxed execution</text><g class="message" data-entity-1="part3" data-entity-2="part5" id="msg5"><polygon fill="#0E2356" points="748.4098,561.96,758.4098,565.96,748.4098,569.96,752.4098,565.96" style="stroke:#0E2356;stroke-width:1;"/><line style="stroke:#0E2356;stroke-width:1;" x1="442.7568" x2="754.4098" y1="565.96" y2="565.96"/><text fill="#0E2356" font-family="'Outfit'" font-size="12" font-weight="bold" lengthAdjust="spacing" textLength="6.72" x="449.7568" y="560.84">5</text><text fill="#0E2356" font-family="'Outfit'" font-size="12" lengthAdjust="spacing" textLength="125.511" x="460.4768" y="560.84">dry-run / isolated apply</text></g><g class="message" data-entity-1="part5" data-entity-2="part3" id="msg6"><polygon fill="#0E2356" points="453.7568,603.68,443.7568,607.68,453.7568,611.68,449.7568,607.68" style="stroke:#0E2356;stroke-width:1;"/><line style="stroke:#0E2356;stroke-width:1;stroke-dasharray:2,2;" x1="447.7568" x2="759.4098" y1="607.68" y2="607.68"/><text fill="#0E2356" font-family="'Outfit'" font-size="12" font-weight="bold" lengthAdjust="spacing" textLength="6.876" x="459.7568" y="596.26">6</text><text fill="#0E2356" font-family="'Outfit'" font-size="12" lengthAdjust="spacing" textLength="53.352" x="470.6328" y="589.96">raw result</text><text fill="#0E2356" font-family="'Outfit'" font-size="10" lengthAdjust="spacing" textLength="155.595" x="470.6328" y="603.08">(exit code, stack trace, SQLSTATE)</text></g><rect fill="#E8F0FE" height="3" rx="4" ry="4" style="stroke:#E8F0FE;stroke-width:1;" width="813.2773" x="0" y="636.87"/><line style="stroke:#6D9EEB;stroke-width:1;" x1="0" x2="813.2773" y1="636.87" y2="636.87"/><line style="stroke:#6D9EEB;stroke-width:1;" x1="0" x2="813.2773" y1="639.87" y2="639.87"/><rect fill="#E8F0FE" height="24.38" rx="4" ry="4" style="stroke:#6D9EEB;stroke-width:2;" width="147.1785" x="333.0494" y="625.68"/><text fill="#0E2356" font-family="'Outfit'" font-size="13" font-weight="bold" lengthAdjust="spacing" textLength="130.7085" x="339.0494" y="642.68">3 &#8212; Semantic analysis</text><g class="message" data-entity-1="part3" data-entity-2="part4" id="msg7"><polygon fill="#0E2356" points="607.1368,677.18,617.1368,681.18,607.1368,685.18,611.1368,681.18" style="stroke:#0E2356;stroke-width:1;"/><line style="stroke:#0E2356;stroke-width:1;" x1="442.7568" x2="613.1368" y1="681.18" y2="681.18"/><text fill="#0E2356" font-family="'Outfit'" font-size="12" font-weight="bold" lengthAdjust="spacing" textLength="6.324" x="449.7568" y="676.06">7</text><text fill="#0E2356" font-family="'Outfit'" font-size="12" lengthAdjust="spacing" textLength="142.056" x="460.0808" y="676.06">raw result + target context</text></g><g class="message" data-entity-1="part4" data-entity-2="part4" id="msg8"><line style="stroke:#0E2356;stroke-width:1;" x1="619.1368" x2="661.1368" y1="725.42" y2="725.42"/><line style="stroke:#0E2356;stroke-width:1;" x1="661.1368" x2="661.1368" y1="725.42" y2="738.42"/><line style="stroke:#0E2356;stroke-width:1;" x1="620.1368" x2="661.1368" y1="738.42" y2="738.42"/><polygon fill="#0E2356" points="630.1368,734.42,620.1368,738.42,630.1368,742.42,626.1368,738.42" style="stroke:#0E2356;stroke-width:1;"/><text fill="#0E2356" font-family="'Outfit'" font-size="12" font-weight="bold" lengthAdjust="spacing" textLength="6.744" x="626.1368" y="712.74">8</text><text fill="#0E2356" font-family="'Outfit'" font-size="12" lengthAdjust="spacing" textLength="107.949" x="636.8808" y="705.18">fast linter / compiler</text><text fill="#0E2356" font-family="'Outfit'" font-size="12" lengthAdjust="spacing" textLength="116.529" x="636.8808" y="720.3">+ business enrichment</text></g><path d="M38,753.42 L95.315,753.42 L95.315,761.8 L85.315,771.8 L34,771.8 L34,757.42 A4,4 0 0 1 38,753.42" fill="#E8F0FE" style="stroke:#CFD3DD;stroke-width:1.5;"/><rect fill="none" height="232.44" rx="4" ry="4" style="stroke:#CFD3DD;stroke-width:1.5;" width="769.2773" x="34" y="753.42"/><text fill="#0E2356" font-family="'Outfit'" font-size="13" font-weight="bold" lengthAdjust="spacing" textLength="16.315" x="49" y="767.42">alt</text><text fill="#0E2356" font-family="'Outfit'" font-size="13" font-weight="bold" lengthAdjust="spacing" textLength="4.5305" x="110.315" y="768.42">[</text><text fill="#EA4335" font-family="'Outfit'" font-size="13" font-weight="bold" lengthAdjust="spacing" textLength="110.214" x="114.8455" y="768.42">application failure</text><text fill="#0E2356" font-family="'Outfit'" font-size="13" font-weight="bold" lengthAdjust="spacing" textLength="4.5305" x="225.0595" y="768.42">]</text><g class="message" data-entity-1="part4" data-entity-2="part1" id="msg9"><polygon fill="#0E2356" points="84.2698,835.66,74.2698,839.66,84.2698,843.66,80.2698,839.66" style="stroke:#0E2356;stroke-width:1;"/><line style="stroke:#0E2356;stroke-width:1;stroke-dasharray:2,2;" x1="78.2698" x2="618.1368" y1="839.66" y2="839.66"/><text fill="#0E2356" font-family="'Outfit'" font-size="12" font-weight="bold" lengthAdjust="spacing" textLength="6.876" x="90.2698" y="811.86">9</text><text fill="#0E2356" font-family="'Outfit'" font-size="12" font-weight="bold" lengthAdjust="spacing" textLength="104.976" x="101.1458" y="789.18">semantic feedback</text><text fill="#0E2356" font-family="'Outfit'" font-size="12" lengthAdjust="spacing" textLength="90.162" x="101.1458" y="804.3">{error_category,</text><text fill="#0E2356" font-family="'Outfit'" font-size="12" lengthAdjust="spacing" textLength="123.27" x="103.6358" y="819.42">remediation_guidance,</text><text fill="#0E2356" font-family="'Outfit'" font-size="12" lengthAdjust="spacing" textLength="88.443" x="103.6358" y="834.54">context_update}</text></g><path d="M78,856.66 L78,899.66 A4,4 0 0 0 82,903.66 L233,903.66 A4,4 0 0 0 237,899.66 L237,862.66 L227,852.66 L82,852.66 A4,4 0 0 0 78,856.66" fill="#E6F4EA" style="stroke:#FFD966;stroke-width:0.5;"/><path d="M227,852.66 L227,860.66 A2,2 0 0 0 229,862.66 L237,862.66 L227,852.66" fill="#E6F4EA" style="stroke:#FFD966;stroke-width:0.5;"/><text fill="#0E2356" font-family="'Outfit'" font-size="11" lengthAdjust="spacing" textLength="113.916" x="84" y="868.66">Guided self-correction:</text><text fill="#0E2356" font-family="'Outfit'" font-size="11" lengthAdjust="spacing" textLength="79.915" x="84" y="882.52">the agent knows</text><text fill="#0E2356" font-family="'Outfit'" font-size="11" font-weight="bold" lengthAdjust="spacing" textLength="25.8555" x="166.1975" y="882.52">what</text><text fill="#0E2356" font-family="'Outfit'" font-size="11" lengthAdjust="spacing" textLength="27.9538" x="194.3355" y="882.52">to fix,</text><text fill="#0E2356" font-family="'Outfit'" font-size="11" lengthAdjust="spacing" textLength="100.54" x="84" y="896.38">not just that it failed.</text><line style="stroke:#CFD3DD;stroke-width:1;stroke-dasharray:2,2;" x1="34" x2="803.2773" y1="910.24" y2="910.24"/><text fill="#0E2356" font-family="'Outfit'" font-size="13" font-weight="bold" lengthAdjust="spacing" textLength="53.924" x="39" y="923.24">[success]</text><g class="message" data-entity-1="part4" data-entity-2="part1" id="msg10"><polygon fill="#0E2356" points="84.2698,944.74,74.2698,948.74,84.2698,952.74,80.2698,948.74" style="stroke:#0E2356;stroke-width:1;"/><line style="stroke:#0E2356;stroke-width:1;stroke-dasharray:2,2;" x1="78.2698" x2="618.1368" y1="948.74" y2="948.74"/><text fill="#0E2356" font-family="'Outfit'" font-size="12" font-weight="bold" lengthAdjust="spacing" textLength="12.522" x="90.2698" y="943.62">10</text><text fill="#34A853" font-family="'Outfit'" font-size="12" lengthAdjust="spacing" textLength="122.325" x="106.7917" y="943.62">{status: OK, new_hash}</text></g><g class="message" data-entity-1="part3" data-entity-2="part5" id="msg11"><polygon fill="#0E2356" points="748.4098,973.86,758.4098,977.86,748.4098,981.86,752.4098,977.86" style="stroke:#0E2356;stroke-width:1;"/><line style="stroke:#0E2356;stroke-width:1;" x1="442.7568" x2="754.4098" y1="977.86" y2="977.86"/><text fill="#0E2356" font-family="'Outfit'" font-size="12" font-weight="bold" lengthAdjust="spacing" textLength="9.072" x="449.7568" y="972.74">11</text><text fill="#0E2356" font-family="'Outfit'" font-size="12" lengthAdjust="spacing" textLength="104.16" x="462.8288" y="972.74">commit the dry-run</text></g><?plantuml-src TLJRRXit47tVhvZABn8YHKxb58OWBw34Kj4sg5r8RLy421HtLikOIox8eIKb292Fo1VsIphBrSrsyYGjEPSpvvpXJyf87J84AydsgC0INrUXr8a8P4qeL-YIX1HfXFVM46uf20suHHb8MGF_VVq60cQbS0JtMb1kNGbpQpL8QtmeqGCN1LBo0Ib917Tnq1h_1kCr6cg1yCs_95dPBRI-KwW55vFhwULqaW1KVAkageGXQCrZJVW7dSeLkeKPUVK9Xsykqv5ADGfFlSgfHwLnZR0EmcMZlaf7_JegZPqFgSyhpuJ96Cx2JEASriNe-kD599RygoICZT2xJyzHYBBIiKFagIP2Ehiny14tg9-ZEPH8q6J0xPCa4oHMmYFFAjmQQM7QqcROXTjttONn3SfEJ6u2aiHOOYqVkMEa5Iwcqydjksl6FUVk8fuLLcSU57a-7QtIevZBHgLHVvL2-_T_vvs8fAwO93Sty2OECPEsGdYCp4aHFT1MfaUiL0TkRfAcRIyzaWj3a4BhTXtH1OeuVPTft6ahiWwyEfZZcF0qESDwPc0y2oCBb0zGQM6MXV05v_eQ3ljA4uoarTODBoRZgy7WRSfMgy7PG5vnVas-jjmeY_cZVenEcO9JNsxSm1y-ByOqtVqzNzvDb_SVndykP-_lxYSrJuSo2_DP465P4MPTu77j1hClN3pguTIw8B3vIHFsyoNV0jmYeIkLKRvsaSCyUDul9ZhU6WkPA5aroAp1rtnsL0Gr-s8_uqPHeSoUY_E1qcXQ7eUtkR2EhLPB6jNykL6pyH2JSbff5Z5cSNRZgbe4j-kvOA0FoblUJauGLQLtoJwYTshbn8Rdy47JsIwqSQi86lDw4YmYEI7vO_RNXzbyF9zqzfiGiGqQR8VT4lLYUENFaHsMvKd3saiD7jcyLSanx6bApey3QCKnZaUIjgpubU3TVGMhu9L1xvbefsHHngVfU-xYwG_-puNImU6PfKvjposrIlrXf1mnMp4DjOVOE-YSTKikXslhThpRF529cOhrb-kWCc6OBJxV3xOC5JyE-4E7JNwPNat6qKE_SZRBvL7dFMcTm-YPORoZuvlmOEp6rn0tXMXU0BAGgsrtxqE2Zu4v8xxbboEEZDbBG_eW9RFtGmhs90wknjTl1-bdjW85FuIxFxfWS1EN-iiPZozyo5ALYYBklIMZeVy7?></g></svg>